HIERARCHY
ROOT root
{
	OFFSET 0.0000 0.0000 0.0000
	CHANNELS 6 Xposition Yposition Zposition Zrotation Xrotation Yrotation
	JOINT rfemur
	{
		OFFSET -8.5590 -9.8555 2.1513
		CHANNELS 3 Zrotation Xrotation Yrotation
		JOINT rtibia
		{
			OFFSET -7.2751 -41.2593 0.0000
			CHANNELS 3 Zrotation Xrotation Yrotation
			JOINT rfoot
			{
				OFFSET -6.5686 -37.2525 -0.0000
				CHANNELS 3 Zrotation Xrotation Yrotation
				JOINT rtoes
				{
					OFFSET 3.2326 -4.1860 10.4122
					CHANNELS 3 Zrotation Xrotation Yrotation
					End Site
					{
						OFFSET 0.0000 0.0000 0.0000
					}
				}
			}
		}
	}
	JOINT lfemur
	{
		OFFSET 8.5590 -9.8555 2.1513
		CHANNELS 3 Zrotation Xrotation Yrotation
		JOINT ltibia
		{
			OFFSET 7.2751 -41.2593 0.0000
			CHANNELS 3 Zrotation Xrotation Yrotation
			JOINT lfoot
			{
				OFFSET 6.5686 -37.2525 -0.0000
				CHANNELS 3 Zrotation Xrotation Yrotation
				JOINT ltoes
				{
					OFFSET 3.2326 -4.1860 10.4122
					CHANNELS 3 Zrotation Xrotation Yrotation
					End Site
					{
						OFFSET -0.0000 -0.0000 0.0000
					}
				}
			}
		}
	}
}
MOTION
Frames: 41
Frame Time: 0.008333
0.0000 214.4851 953.3414 0.0000 0.0000 0.0000 -0.0000 -31.7560 -0.0000 -0.0000 -0.0000 -0.0000 -0.0000 -0.0000 -0.0000 -0.0000 -0.0000 -0.0000 -0.0000 6.0691 -0.0000 -0.0000 -0.0000 -0.0000 -0.0000 -0.0000 -0.0000 -0.0000 -0.0000 -0.0000 
0.0000 214.5496 953.4459 0.0000 0.0000 0.0000 -0.0000 -31.6856 -0.0000 -0.0000 -0.0000 -0.0000 -0.0000 -0.0000 -0.0000 -0.0000 -0.0000 -0.0000 -0.0000 6.0261 -0.0000 -0.0000 0.0017 -0.0000 -0.0000 -0.0000 -0.0000 -0.0000 -0.0000 -0.0000 
0.0000 214.6139 953.5501 0.0000 0.0000 0.0000 -0.0000 -31.6155 -0.0000 -0.0000 -0.0000 -0.0000 -0.0000 -0.0000 -0.0000 -0.0000 -0.0000 -0.0000 -0.0000 5.9819 -0.0000 -0.0000 0.0069 -0.0000 -0.0000 -0.0000 -0.0000 -0.0000 -0.0000 -0.0000 
0.0000 214.6777 953.6540 0.0000 0.0000 0.0000 -0.0000 -31.5457 -0.0000 -0.0000 -0.0000 -0.0000 -0.0000 -0.0000 -0.0000 -0.0000 -0.0000 -0.0000 -0.0000 5.9363 -0.0000 -0.0000 0.0156 -0.0000 -0.0000 -0.0000 -0.0000 -0.0000 -0.0000 -0.0000 
0.0000 214.7412 953.7575 0.0000 0.0000 0.0000 -0.0000 -31.4761 -0.0000 -0.0000 -0.0000 -0.0000 -0.0000 -0.0000 -0.0000 -0.0000 -0.0000 -0.0000 -0.0000 5.8893 -0.0000 -0.0000 0.0278 -0.0000 -0.0000 -0.0000 -0.0000 -0.0000 -0.0000 -0.0000 
0.0000 214.8922 954.0050 0.0000 0.0000 0.0000 -0.0000 -31.3100 -0.0000 -0.0000 -0.0000 -0.0000 -0.0000 -0.0000 -0.0000 -0.0000 -0.0000 -0.0000 -0.0000 5.7709 -0.0000 -0.0000 0.0713 -0.0000 -0.0000 -0.0000 -0.0000 -0.0000 -0.0000 -0.0000 
0.0000 215.0411 954.2506 0.0000 0.0000 0.0000 -0.0000 -31.1454 -0.0000 -0.0000 -0.0000 -0.0000 -0.0000 -0.0000 -0.0000 -0.0000 -0.0000 -0.0000 -0.0000 5.6447 -0.0000 -0.0000 0.1349 -0.0000 -0.0000 -0.0000 -0.0000 -0.0000 -0.0000 -0.0000 
0.0000 215.1879 954.4943 0.0000 0.0000 0.0000 -0.0000 -30.9824 -0.0000 -0.0000 -0.0000 -0.0000 -0.0000 -0.0000 -0.0000 -0.0000 -0.0000 -0.0000 -0.0000 5.5106 -0.0000 -0.0000 0.2186 -0.0000 -0.0000 -0.0000 -0.0000 -0.0000 -0.0000 -0.0000 
0.0000 215.3327 954.7362 0.0000 0.0000 0.0000 -0.0000 -30.8209 -0.0000 -0.0000 -0.0000 -0.0000 -0.0000 -0.0000 -0.0000 -0.0000 -0.0000 -0.0000 -0.0000 5.3687 -0.0000 -0.0000 0.3224 -0.0000 -0.0000 -0.0000 -0.0000 -0.0000 -0.0000 -0.0000 
0.0000 215.4754 954.9761 0.0000 0.0000 0.0000 -0.0000 -30.6609 -0.0000 -0.0000 -0.0000 -0.0000 -0.0000 -0.0000 -0.0000 -0.0000 -0.0000 -0.0000 -0.0000 5.2189 -0.0000 -0.0000 0.4464 -0.0000 -0.0000 -0.0000 -0.0000 -0.0000 -0.0000 -0.0000 
0.0000 215.6161 955.2142 0.0000 0.0000 0.0000 -0.0000 -30.5025 -0.0000 -0.0000 -0.0000 -0.0000 -0.0000 -0.0000 -0.0000 -0.0000 -0.0000 -0.0000 -0.0000 5.0612 -0.0000 -0.0000 0.5904 -0.0000 -0.0000 -0.0000 -0.0000 -0.0000 -0.0000 -0.0000 
0.0000 215.7548 955.4503 0.0000 0.0000 0.0000 -0.0000 -30.3456 -0.0000 -0.0000 -0.0000 -0.0000 -0.0000 -0.0000 -0.0000 -0.0000 -0.0000 -0.0000 -0.0000 4.8957 -0.0000 -0.0000 0.7546 -0.0000 -0.0000 -0.0000 -0.0000 -0.0000 -0.0000 -0.0000 
0.0000 215.8915 955.6845 0.0000 0.0000 0.0000 -0.0000 -30.1902 -0.0000 -0.0000 -0.0000 -0.0000 -0.0000 -0.0000 -0.0000 -0.0000 -0.0000 -0.0000 -0.0000 4.7223 -0.0000 -0.0000 0.9387 -0.0000 -0.0000 -0.0000 -0.0000 -0.0000 -0.0000 -0.0000 
0.0000 216.0262 955.9168 0.0000 0.0000 0.0000 -0.0000 -30.0363 -0.0000 -0.0000 -0.0000 -0.0000 -0.0000 -0.0000 -0.0000 -0.0000 -0.0000 -0.0000 -0.0000 4.5410 -0.0000 -0.0000 1.1429 -0.0000 -0.0000 -0.0000 -0.0000 -0.0000 -0.0000 -0.0000 
0.0000 216.1589 956.1471 0.0000 0.0000 0.0000 -0.0000 -29.8840 -0.0000 -0.0000 -0.0000 -0.0000 -0.0000 -0.0000 -0.0000 -0.0000 -0.0000 -0.0000 -0.0000 4.3518 -0.0000 -0.0000 1.3670 -0.0000 -0.0000 -0.0000 -0.0000 -0.0000 -0.0000 -0.0000 
0.0000 216.2897 956.3754 0.0000 0.0000 0.0000 -0.0000 -29.7333 -0.0000 -0.0000 -0.0000 -0.0000 -0.0000 -0.0000 -0.0000 -0.0000 -0.0000 -0.0000 -0.0000 4.1547 -0.0000 -0.0000 1.6110 -0.0000 -0.0000 -0.0000 -0.0000 -0.0000 -0.0000 -0.0000 
0.0000 216.4186 956.6018 0.0000 0.0000 0.0000 -0.0000 -29.5840 -0.0000 -0.0000 -0.0000 -0.0000 -0.0000 -0.0000 -0.0000 -0.0000 -0.0000 -0.0000 -0.0000 3.9498 -0.0000 -0.0000 1.8748 -0.0000 -0.0000 -0.0000 -0.0000 -0.0000 -0.0000 -0.0000 
0.0000 216.5456 956.8262 0.0000 0.0000 0.0000 -0.0000 -29.4363 -0.0000 -0.0000 -0.0000 -0.0000 -0.0000 -0.0000 -0.0000 -0.0000 -0.0000 -0.0000 -0.0000 3.7370 -0.0000 -0.0000 2.1584 -0.0000 -0.0000 -0.0000 -0.0000 -0.0000 -0.0000 -0.0000 
0.0000 216.6707 957.0485 0.0000 0.0000 0.0000 -0.0000 -29.2901 -0.0000 -0.0000 -0.0000 -0.0000 -0.0000 -0.0000 -0.0000 -0.0000 -0.0000 -0.0000 -0.0000 3.5163 -0.0000 -0.0000 2.4615 -0.0000 -0.0000 -0.0000 -0.0000 -0.0000 -0.0000 -0.0000 
0.0000 216.7939 957.2688 0.0000 0.0000 0.0000 -0.0000 -29.1455 -0.0000 -0.0000 -0.0000 -0.0000 -0.0000 -0.0000 -0.0000 -0.0000 -0.0000 -0.0000 -0.0000 3.2877 -0.0000 -0.0000 2.7842 -0.0000 -0.0000 -0.0000 -0.0000 -0.0000 -0.0000 -0.0000 
0.0000 216.9153 957.4871 0.0000 0.0000 0.0000 -0.0000 -29.0024 -0.0000 -0.0000 -0.0000 -0.0000 -0.0000 -0.0000 -0.0000 -0.0000 -0.0000 -0.0000 -0.0000 3.0513 -0.0000 -0.0000 3.1263 -0.0000 -0.0000 -0.0000 -0.0000 -0.0000 -0.0000 -0.0000 
0.0000 217.0348 957.7034 0.0000 0.0000 0.0000 -0.0000 -28.8608 -0.0000 -0.0000 -0.0000 -0.0000 -0.0000 -0.0000 -0.0000 -0.0000 -0.0000 -0.0000 -0.0000 2.8070 -0.0000 -0.0000 3.4877 -0.0000 -0.0000 -0.0000 -0.0000 -0.0000 -0.0000 -0.0000 
0.0000 217.1526 957.9176 0.0000 0.0000 0.0000 -0.0000 -28.7208 -0.0000 -0.0000 -0.0000 -0.0000 -0.0000 -0.0000 -0.0000 -0.0000 -0.0000 -0.0000 -0.0000 2.5549 -0.0000 -0.0000 3.8682 -0.0000 -0.0000 -0.0000 -0.0000 -0.0000 -0.0000 -0.0000 
0.0000 217.2685 958.1297 0.0000 0.0000 0.0000 -0.0000 -28.5822 -0.0000 -0.0000 -0.0000 -0.0000 -0.0000 -0.0000 -0.0000 -0.0000 -0.0000 -0.0000 -0.0000 2.2950 -0.0000 -0.0000 4.2678 -0.0000 -0.0000 -0.0000 -0.0000 -0.0000 -0.0000 -0.0000 
0.0000 217.3826 958.3398 0.0000 0.0000 0.0000 -0.0000 -28.4453 -0.0000 -0.0000 -0.0000 -0.0000 -0.0000 -0.0000 -0.0000 -0.0000 -0.0000 -0.0000 -0.0000 2.0273 -0.0000 -0.0000 4.6863 -0.0000 -0.0000 -0.0000 -0.0000 -0.0000 -0.0000 -0.0000 
0.0000 217.4950 958.5478 0.0000 0.0000 0.0000 -0.0000 -28.3098 -0.0000 -0.0000 -0.0000 -0.0000 -0.0000 -0.0000 -0.0000 -0.0000 -0.0000 -0.0000 -0.0000 1.7518 -0.0000 -0.0000 5.1235 -0.0000 -0.0000 -0.0000 -0.0000 -0.0000 -0.0000 -0.0000 
0.0000 217.6056 958.7537 0.0000 0.0000 0.0000 -0.0000 -28.1759 -0.0000 -0.0000 -0.0000 -0.0000 -0.0000 -0.0000 -0.0000 -0.0000 -0.0000 -0.0000 -0.0000 1.4685 -0.0000 -0.0000 5.5793 -0.0000 -0.0000 -0.0000 -0.0000 -0.0000 -0.0000 -0.0000 
0.0000 217.7144 958.9575 0.0000 0.0000 0.0000 -0.0000 -28.0435 -0.0000 -0.0000 -0.0000 -0.0000 -0.0000 -0.0000 -0.0000 -0.0000 -0.0000 -0.0000 -0.0000 1.1776 -0.0000 -0.0000 6.0534 -0.0000 -0.0000 -0.0000 -0.0000 -0.0000 -0.0000 -0.0000 
0.0000 217.8216 959.1592 0.0000 0.0000 0.0000 -0.0000 -27.9127 -0.0000 -0.0000 -0.0000 -0.0000 -0.0000 -0.0000 -0.0000 -0.0000 -0.0000 -0.0000 -0.0000 0.8789 -0.0000 -0.0000 6.5458 -0.0000 -0.0000 -0.0000 -0.0000 -0.0000 -0.0000 -0.0000 
0.0000 217.9270 959.3588 0.0000 0.0000 0.0000 -0.0000 -27.7833 -0.0000 -0.0000 -0.0000 -0.0000 -0.0000 -0.0000 -0.0000 -0.0000 -0.0000 -0.0000 -0.0000 0.5726 -0.0000 -0.0000 7.0562 -0.0000 -0.0000 -0.0000 -0.0000 -0.0000 -0.0000 -0.0000 
0.0000 218.0308 959.5562 0.0000 0.0000 0.0000 -0.0000 -27.6555 -0.0000 -0.0000 -0.0000 -0.0000 -0.0000 -0.0000 -0.0000 -0.0000 -0.0000 -0.0000 -0.0000 0.2586 -0.0000 -0.0000 7.5844 -0.0000 -0.0000 -0.0000 -0.0000 -0.0000 -0.0000 -0.0000 
0.0000 218.1328 959.7516 0.0000 0.0000 0.0000 -0.0000 -27.5293 -0.0000 -0.0000 -0.0000 -0.0000 -0.0000 -0.0000 -0.0000 -0.0000 -0.0000 -0.0000 -0.0000 -0.0630 -0.0000 -0.0000 8.1302 -0.0000 -0.0000 -0.0000 -0.0000 -0.0000 -0.0000 -0.0000 
0.0000 218.2333 959.9448 0.0000 0.0000 0.0000 -0.0000 -27.4045 -0.0000 -0.0000 -0.0000 -0.0000 -0.0000 -0.0000 -0.0000 -0.0000 -0.0000 -0.0000 -0.0000 -0.3921 -0.0000 -0.0000 8.6934 -0.0000 -0.0000 -0.0000 -0.0000 -0.0000 -0.0000 -0.0000 
0.0000 218.3321 960.1358 0.0000 0.0000 0.0000 -0.0000 -27.2813 -0.0000 -0.0000 -0.0000 -0.0000 -0.0000 -0.0000 -0.0000 -0.0000 -0.0000 -0.0000 -0.0000 -0.7288 -0.0000 -0.0000 9.2737 -0.0000 -0.0000 -0.0000 -0.0000 -0.0000 -0.0000 -0.0000 
0.0000 218.4292 960.3247 0.0000 0.0000 0.0000 -0.0000 -27.1596 -0.0000 -0.0000 -0.0000 -0.0000 -0.0000 -0.0000 -0.0000 -0.0000 -0.0000 -0.0000 -0.0000 -1.0729 -0.0000 -0.0000 9.8710 -0.0000 -0.0000 -0.0000 -0.0000 -0.0000 -0.0000 -0.0000 
0.0000 218.5248 960.5115 0.0000 0.0000 0.0000 -0.0000 -27.0393 -0.0000 -0.0000 -0.0000 -0.0000 -0.0000 -0.0000 -0.0000 -0.0000 -0.0000 -0.0000 -0.0000 -1.4245 -0.0000 -0.0000 10.4849 -0.0000 -0.0000 -0.0000 -0.0000 -0.0000 -0.0000 -0.0000 
0.0000 218.6188 960.6961 0.0000 0.0000 0.0000 -0.0000 -26.9206 -0.0000 -0.0000 -0.0000 -0.0000 -0.0000 -0.0000 -0.0000 -0.0000 -0.0000 -0.0000 -0.0000 -1.7834 -0.0000 -0.0000 11.1153 -0.0000 -0.0000 -0.0000 -0.0000 -0.0000 -0.0000 -0.0000 
0.0000 218.7112 960.8786 0.0000 0.0000 0.0000 -0.0000 -26.8034 -0.0000 -0.0000 -0.0000 -0.0000 -0.0000 -0.0000 -0.0000 -0.0000 -0.0000 -0.0000 -0.0000 -2.1496 -0.0000 -0.0000 11.7618 -0.0000 -0.0000 -0.0000 -0.0000 -0.0000 -0.0000 -0.0000 
0.0000 218.8021 961.0590 0.0000 0.0000 0.0000 -0.0000 -26.6877 -0.0000 -0.0000 -0.0000 -0.0000 -0.0000 -0.0000 -0.0000 -0.0000 -0.0000 -0.0000 -0.0000 -2.5231 -0.0000 -0.0000 12.4242 -0.0000 -0.0000 -0.0000 -0.0000 -0.0000 -0.0000 -0.0000 
0.0000 218.8915 961.2372 0.0000 0.0000 0.0000 -0.0000 -26.5735 -0.0000 -0.0000 -0.0000 -0.0000 -0.0000 -0.0000 -0.0000 -0.0000 -0.0000 -0.0000 -0.0000 -2.9038 -0.0000 -0.0000 13.1022 -0.0000 -0.0000 -0.0000 -0.0000 -0.0000 -0.0000 -0.0000 
0.0000 218.9793 961.4132 0.0000 0.0000 0.0000 -0.0000 -26.4608 -0.0000 -0.0000 -0.0000 -0.0000 -0.0000 -0.0000 -0.0000 -0.0000 -0.0000 -0.0000 -0.0000 -3.2916 -0.0000 -0.0000 13.7956 -0.0000 -0.0000 -0.0000 -0.0000 -0.0000 -0.0000 -0.0000 
